<svg xmlns="http://www.w3.org/2000/svg" viewBox="0 0 32 32" fill="none">
  <rect width="32" height="32" rx="8" fill="url(#gradient)"/>
  <path d="M21.5 14.5c.5-2-1-3-3-3.5l.5-2.5-1.5-.4-.5 2.3c-.4-.1-.8-.2-1.2-.3l.5-2.3-1.5-.4-.5 2.5c-.3-.1-.7-.2-1-.2l-2-.5-.3 1.6s1.1.3 1.1.3c.6.2.7.6.7 1l-.7 3c0 0 .1 0 .2.1h-.2l-1 4c-.1.2-.3.5-.8.4 0 0-1.1-.3-1.1-.3l-.8 1.7 1.9.5c.4.1.7.2 1 .3l-.5 2.5 1.5.4.5-2.5c.4.1.8.2 1.2.3l-.5 2.5 1.5.4.5-2.5c2.5.5 4.5.3 5.3-2 .6-1.8 0-2.9-1.4-3.6 1-.2 1.8-.9 2-2.3zm-3.5 5c-.5 1.8-3.5.8-4.5.6l.8-3.2c1 .2 4.2.7 3.7 2.6zm.4-5c-.4 1.6-3 .8-3.8.6l.7-2.9c.8.2 3.5.6 3.1 2.3z" fill="white"/>
  <defs>
    <linearGradient id="gradient" x1="0" y1="0" x2="32" y2="32" gradientUnits="userSpaceOnUse">
      <stop stop-color="#F7931A"/>
      <stop offset="1" stop-color="#FFAB40"/>
    </linearGradient>
  </defs>
</svg>
